<svg xmlns="http://www.w3.org/2000/svg" xmlns:svg="http://www.w3.org/2000/svg" id="svg4309" width="2277.214" height="587.021" version="1.1" viewBox="0 0 2134.888 550.332"><metadata id="metadata4314"/><g id="layer1" transform="translate(0,-502.03042)"><circle style="fill:#f60;fill-opacity:1;fill-rule:evenodd;stroke:#fff;stroke-width:0;stroke-miterlimit:4;stroke-dasharray:none;stroke-opacity:1" id="path4859" cx="275" cy="777.362" r="75"/><circle id="circle4861" cx="475" cy="977.362" style="fill:#038ff4;fill-opacity:1;fill-rule:evenodd;stroke:none;stroke-width:0;stroke-miterlimit:4;stroke-dasharray:none;stroke-opacity:1" r="75"/><flowRoot id="flowRoot4161" xml:space="preserve" style="font-style:normal;font-weight:400;font-size:40px;line-height:125%;font-family:sans-serif;letter-spacing:0;word-spacing:0;fill:#000;fill-opacity:1;stroke:none;stroke-width:1px;stroke-linecap:butt;stroke-linejoin:miter;stroke-opacity:1"><flowRegion id="flowRegion4163"><rect id="rect4165" width="160" height="139" x="426" y="90.362"/></flowRegion><flowPara id="flowPara4167"/></flowRoot><circle style="fill:#038ff4;fill-opacity:1;fill-rule:evenodd;stroke:#fff;stroke-width:0;stroke-miterlimit:4;stroke-dasharray:none;stroke-opacity:1" id="circle4174" cx="75" cy="977.362" r="75"/><circle id="circle4176" cx="75" cy="777.362" style="fill:#038ff4;fill-opacity:1;fill-rule:evenodd;stroke:none;stroke-width:0;stroke-miterlimit:4;stroke-dasharray:none;stroke-opacity:1" r="75"/><circle id="circle4212" cx="275" cy="577.362" style="fill:#038ff4;fill-opacity:1;fill-rule:evenodd;stroke:none;stroke-width:0;stroke-miterlimit:4;stroke-dasharray:none;stroke-opacity:1" r="75"/><circle style="fill:#038ff4;fill-opacity:1;fill-rule:evenodd;stroke:none;stroke-width:0;stroke-miterlimit:4;stroke-dasharray:none;stroke-opacity:1" id="circle4214" cx="475" cy="577.362" r="75"/><circle id="circle4216" cx="275" cy="977.362" style="fill:#038ff4;fill-opacity:1;fill-rule:evenodd;stroke:none;stroke-width:0;stroke-miterlimit:4;stroke-dasharray:none;stroke-opacity:1" r="75"/><circle id="circle4246" cx="475" cy="777.362" style="fill:#038ff4;fill-opacity:1;fill-rule:evenodd;stroke:#fff;stroke-width:0;stroke-miterlimit:4;stroke-dasharray:none;stroke-opacity:1" r="75"/><circle style="fill:#038ff4;fill-opacity:1;fill-rule:evenodd;stroke:#fff;stroke-width:0;stroke-miterlimit:4;stroke-dasharray:none;stroke-opacity:1" id="circle4248" cx="75" cy="577.362" r="75"/><path style="fill:none;fill-rule:evenodd;stroke:#038ff4;stroke-width:45;stroke-linecap:butt;stroke-linejoin:miter;stroke-miterlimit:4;stroke-dasharray:none;stroke-opacity:1" id="path4757" d="m 275,577.3622 -200,200 200,208.53197 200,-208.53197 z"/><g id="text4759"><path id="path11397" d="m 795.45727,628.05999 -45.72236,0 0,308.91901 45.72236,0 0,-164.13154 c 5.27566,-60.96314 45.72236,-101.40985 110.78879,-100.23748 l 0,-46.30854 c -52.17038,0.58618 -90.27235,25.20592 -110.78879,70.34209 l 0,-68.58354 z" style="fill:#038ff4;fill-opacity:1"/><path id="path11399" d="m 1144.0628,936.979 44.55,0 -0.5862,-203.99206 c -0.5862,-66.2388 -42.7914,-106.6855 -118.9954,-106.6855 -52.7565,0 -86.16904,15.24079 -126.02956,41.61907 l 19.34408,33.41249 c 32.24012,-22.27499 63.89408,-35.17104 97.89278,-35.17104 54.5151,0 82.6519,26.96447 82.6519,72.10064 l 0,18.17171 -101.4098,0 c -72.68686,0.58618 -115.4783,34.58486 -115.4783,88.51379 0,53.34275 41.03289,94.37564 104.927,94.37564 49.2394,0 88.5138,-16.41315 113.1335,-49.82565 l 0,47.48091 z M 1039.722,899.46322 c -43.37761,0 -70.92826,-22.27499 -70.92826,-56.27367 0,-33.99868 26.96447,-49.82565 78.54866,-49.82565 l 96.1342,0 0,36.9296 c -11.7237,42.79144 -51.5842,69.16972 -103.7546,69.16972 z" style="fill:#038ff4;fill-opacity:1"/><path id="path11401" d="m 1338.7766,936.979 0,-434.94858 -45.7223,0 0,434.94858 45.7223,0 z" style="fill:#038ff4;fill-opacity:1"/><path id="path11403" d="m 1620.3465,626.30144 c -53.9289,0 -96.1342,25.20592 -118.9954,68.58354 l 0,-66.82499 -45.7223,0 0,422.63871 45.7223,0 0,-179.9585 c 22.8612,42.79144 65.0665,67.99736 120.1678,67.99736 87.3414,0 147.1322,-63.89407 147.1322,-155.33879 0,-92.61708 -60.9632,-157.09733 -148.3046,-157.09733 z m -8.2066,270.81705 c -65.0664,0 -110.7888,-47.48091 -110.7888,-114.89208 0,-66.82499 45.7224,-114.89208 110.7888,-114.89208 64.4803,0 110.2026,48.65327 110.2026,114.89208 0,66.82498 -45.7223,114.89208 -110.2026,114.89208 z" style="fill:#038ff4;fill-opacity:1"/><path id="path11405" d="m 2017.651,626.30144 c -56.8598,0.58618 -99.0651,22.86118 -120.1677,70.92827 l 0,-195.19929 -45.7224,0 0,434.94858 45.7224,0 0,-151.82167 c 0,-66.2388 38.6881,-112.54735 104.3408,-113.13353 54.5151,0 87.3414,32.24012 87.3414,86.75524 l 0,178.19996 45.7223,0 0,-190.50982 c 0,-74.44538 -43.3776,-120.16774 -117.2368,-120.16774 z" style="fill:#038ff4;fill-opacity:1"/></g></g></svg>